<svg id="svg" version="1.1" width="400" height="131.74145738987238" viewBox="0 0 400 131.74145738987238" xmlns="http://www.w3.org/2000/svg" xmlns:xlink="http://www.w3.org/1999/xlink" ><g id="svgg"><path id="path0" d="M16.250 2.768 C 12.274 3.725,8.699 7.331,7.759 11.333 C 7.372 12.981,7.372 118.519,7.759 120.167 C 8.675 124.063,11.964 127.482,15.892 128.620 L 17.204 129.000 70.734 129.000 C 130.604 129.000,124.973 129.125,127.800 127.737 C 130.506 126.410,132.588 123.973,133.629 120.917 L 134.083 119.583 134.083 65.750 L 134.083 11.917 133.629 10.583 C 132.319 6.737,129.351 3.912,125.499 2.844 C 123.876 2.395,72.333 2.289,72.333 2.735 C 72.333 3.038,75.950 12.436,77.693 16.663 C 79.598 21.283,81.603 25.636,87.252 37.417 C 89.977 43.100,92.828 49.063,93.586 50.667 C 94.345 52.271,95.600 54.896,96.376 56.500 C 101.384 66.856,105.016 74.404,107.084 78.750 C 108.393 81.500,110.559 86.029,111.898 88.813 C 114.963 95.186,114.977 94.798,111.686 94.617 C 105.509 94.279,101.088 91.614,97.529 86.083 C 96.144 83.931,89.410 73.120,87.251 69.583 C 86.076 67.658,82.924 62.521,80.248 58.167 C 77.571 53.813,74.721 49.163,73.915 47.833 C 68.145 38.321,65.229 35.416,60.465 34.432 C 55.814 33.471,54.269 34.252,45.676 41.912 C 38.273 48.511,37.146 49.325,33.925 50.400 C 29.031 52.035,22.500 50.208,22.500 47.205 C 22.500 46.582,22.296 46.819,27.188 41.756 C 41.233 27.222,43.300 22.254,42.431 5.125 L 42.298 2.500 29.774 2.514 C 19.469 2.525,17.073 2.570,16.250 2.768 M62.745 42.644 C 65.968 43.895,71.333 49.255,71.333 51.224 C 71.333 51.680,70.635 52.632,55.985 72.167 C 37.236 97.166,37.949 96.320,36.046 95.842 C 30.985 94.572,29.127 89.803,31.588 84.397 C 32.206 83.039,33.256 81.335,37.225 75.250 C 38.779 72.867,41.977 67.954,44.330 64.333 C 51.884 52.713,57.870 43.601,58.371 42.960 C 59.212 41.885,60.543 41.789,62.745 42.644 M122.500 106.723 C 122.500 110.319,119.725 114.485,116.167 116.231 C 113.346 117.615,117.256 117.510,70.292 117.460 L 28.417 117.415 27.303 117.056 C 22.621 115.545,19.000 111.107,19.000 106.878 L 19.000 106.000 70.750 106.000 L 122.500 106.000 122.500 106.723 " stroke="none" fill="#fbdb04" fill-rule="evenodd"></path><path id="path1" d="M42.571 9.958 C 42.595 24.306,41.235 27.077,26.518 42.662 C 22.491 46.926,22.415 47.037,22.902 47.967 C 24.171 50.388,29.140 51.644,33.050 50.532 C 36.525 49.545,37.851 48.622,45.353 41.974 C 54.036 34.279,54.796 33.830,58.776 34.041 C 62.958 34.263,65.956 36.183,69.496 40.907 C 71.724 43.881,73.404 46.542,81.551 60.000 C 83.021 62.429,85.349 66.217,86.723 68.417 C 88.097 70.617,90.982 75.267,93.133 78.750 C 98.655 87.691,98.645 87.677,100.735 89.750 C 104.035 93.024,107.722 94.496,112.630 94.499 C 114.470 94.500,114.481 94.669,112.361 90.146 C 110.652 86.499,109.440 83.974,103.005 70.667 C 101.608 67.779,99.544 63.467,98.417 61.083 C 97.290 58.700,95.002 53.938,93.334 50.500 C 81.732 26.603,77.788 17.874,73.644 6.917 C 72.916 4.992,72.239 3.210,72.140 2.958 L 71.960 2.500 57.259 2.500 L 42.558 2.500 42.571 9.958 M315.917 9.558 C 313.973 10.201,312.610 11.378,311.779 13.133 L 311.250 14.250 311.250 63.417 L 311.250 112.583 311.779 113.700 C 314.303 119.027,322.137 118.724,324.361 113.214 L 324.750 112.250 324.796 64.417 C 324.845 13.608,324.861 14.641,324.009 12.909 C 322.666 10.182,318.831 8.594,315.917 9.558 M344.417 9.558 C 342.473 10.201,341.110 11.378,340.279 13.133 L 339.750 14.250 339.750 63.417 L 339.750 112.583 340.279 113.700 C 343.101 119.657,352.232 118.326,353.172 111.821 C 353.379 110.386,353.379 16.447,353.172 15.013 C 352.596 11.029,348.217 8.300,344.417 9.558 M161.045 14.326 C 156.695 15.891,155.548 21.505,158.711 25.750 C 159.623 26.974,165.851 35.681,167.202 37.622 C 167.634 38.242,170.203 41.825,172.912 45.583 C 175.621 49.342,178.380 53.188,179.043 54.132 C 180.830 56.671,186.909 65.186,190.153 69.693 L 192.991 73.635 193.037 92.943 L 193.083 112.250 193.583 113.477 C 195.777 118.861,204.008 118.798,206.194 113.381 L 206.583 112.417 206.667 92.906 L 206.750 73.396 209.072 70.156 C 210.348 68.375,211.744 66.467,212.172 65.917 C 213.255 64.525,220.405 54.504,220.658 54.023 C 220.772 53.807,221.441 52.869,222.146 51.940 C 224.021 49.465,231.574 38.955,236.703 31.681 C 237.829 30.085,239.430 27.865,240.260 26.748 C 244.939 20.456,242.993 14.226,236.285 14.024 C 232.365 13.906,232.925 13.322,222.800 28.083 C 219.051 33.549,213.890 41.037,211.081 45.083 C 209.299 47.650,207.840 49.802,207.838 49.866 C 207.835 49.930,207.237 50.830,206.508 51.866 C 205.780 52.902,203.998 55.455,202.550 57.540 C 201.102 59.624,199.879 61.327,199.833 61.323 C 199.787 61.319,198.625 59.667,197.250 57.651 C 195.875 55.635,194.634 53.858,194.493 53.701 C 194.129 53.298,193.167 51.879,193.167 51.745 C 193.167 51.684,192.516 50.685,191.721 49.525 C 188.324 44.573,185.433 40.411,185.334 40.333 C 185.196 40.224,179.408 31.802,179.318 31.580 C 179.281 31.486,178.630 30.511,177.872 29.413 C 168.158 15.339,168.133 15.306,166.417 14.481 C 165.145 13.870,162.522 13.794,161.045 14.326 M261.583 40.597 C 256.703 41.073,254.546 41.469,251.764 42.400 C 235.968 47.686,227.101 64.864,229.346 85.833 C 231.675 107.585,246.713 119.489,270.208 118.182 C 279.072 117.688,283.639 116.462,291.000 112.601 C 295.497 110.241,296.385 109.171,296.406 106.083 C 296.419 104.266,296.069 103.415,294.794 102.159 C 292.548 99.949,290.256 99.868,286.034 101.852 C 277.128 106.037,264.109 106.767,256.250 103.522 C 249.119 100.578,244.086 93.570,242.921 84.961 L 242.814 84.172 268.535 84.128 L 294.257 84.083 295.368 83.537 C 298.826 81.834,299.651 78.468,298.509 70.721 C 296.269 55.522,286.012 44.047,272.250 41.343 C 269.245 40.753,263.853 40.376,261.583 40.597 M59.280 42.414 C 58.622 42.757,58.516 42.902,55.382 47.715 C 53.843 50.079,50.604 55.029,48.184 58.715 C 43.451 65.926,42.114 67.981,36.724 76.333 C 30.922 85.323,30.538 86.159,30.696 89.457 C 30.853 92.753,33.362 95.407,36.538 95.637 C 38.233 95.760,35.875 98.675,58.870 68.028 C 71.739 50.876,71.431 51.330,70.892 50.283 C 68.621 45.866,61.680 41.162,59.280 42.414 M268.169 52.579 C 277.148 53.704,284.357 61.837,285.421 72.042 L 285.539 73.167 264.186 73.167 L 242.833 73.167 242.833 72.730 C 242.833 70.548,243.841 66.622,245.000 64.284 C 248.514 57.199,253.768 53.187,260.417 52.511 C 261.425 52.408,262.475 52.297,262.750 52.264 C 263.498 52.175,266.188 52.331,268.169 52.579 M19.212 107.208 C 19.566 111.800,23.427 116.094,28.088 117.081 C 29.880 117.461,112.112 117.458,113.590 117.078 C 118.385 115.846,122.317 111.218,122.331 106.792 L 122.333 106.000 70.726 106.000 L 19.119 106.000 19.212 107.208 M380.000 106.121 C 379.530 106.301,379.505 106.592,379.503 112.046 L 379.500 117.508 379.917 117.667 C 380.180 117.767,380.487 117.767,380.750 117.667 L 381.167 117.508 381.172 112.962 L 381.178 108.417 382.965 112.786 C 384.868 117.442,385.031 117.722,385.835 117.722 C 386.647 117.722,386.859 117.358,388.729 112.750 L 390.488 108.417 390.494 112.962 L 390.500 117.508 390.917 117.667 C 391.180 117.767,391.487 117.767,391.750 117.667 L 392.167 117.508 392.164 112.046 C 392.161 105.968,392.196 106.153,391.020 106.040 C 389.534 105.897,389.351 106.215,386.491 113.887 C 386.149 114.806,385.897 115.274,385.820 115.137 C 385.753 115.016,385.235 113.754,384.669 112.333 C 382.584 107.092,382.174 106.208,381.783 106.103 C 381.333 105.982,380.339 105.993,380.000 106.121 M368.268 106.430 C 367.894 107.404,368.352 107.667,370.429 107.667 L 372.167 107.667 372.167 112.239 C 372.167 117.647,372.272 118.102,373.418 117.666 L 373.833 117.508 373.833 112.587 L 373.833 107.667 375.655 107.667 C 377.829 107.667,378.153 107.504,377.895 106.542 L 377.794 106.167 373.082 106.167 C 368.938 106.167,368.357 106.199,368.268 106.430 " stroke="none" fill="#040404" fill-rule="evenodd"></path><path id="path2" d="M66.750 37.833 C 67.108 38.200,67.438 38.500,67.484 38.500 C 67.530 38.500,67.275 38.200,66.917 37.833 C 66.559 37.467,66.228 37.167,66.182 37.167 C 66.137 37.167,66.392 37.467,66.750 37.833 M24.406 44.708 L 23.917 45.250 24.458 44.760 C 24.756 44.491,25.000 44.248,25.000 44.219 C 25.000 44.090,24.862 44.203,24.406 44.708 M111.875 94.615 C 112.035 94.657,112.298 94.657,112.458 94.615 C 112.619 94.573,112.487 94.539,112.167 94.539 C 111.846 94.539,111.715 94.573,111.875 94.615 M21.833 113.552 C 21.833 113.581,22.077 113.825,22.375 114.094 L 22.917 114.583 22.427 114.042 C 21.971 113.537,21.833 113.423,21.833 113.552 M73.042 117.458 C 79.619 117.482,90.381 117.482,96.958 117.458 C 103.535 117.434,98.154 117.414,85.000 117.414 C 71.846 117.414,66.465 117.434,73.042 117.458 " stroke="none" fill="#5c5104" fill-rule="evenodd"></path><path id="path3" d="M42.379 4.333 C 42.379 4.746,42.411 4.915,42.451 4.708 C 42.491 4.502,42.491 4.165,42.451 3.958 C 42.411 3.752,42.379 3.921,42.379 4.333 M42.552 8.917 C 42.553 9.467,42.584 9.672,42.621 9.372 C 42.658 9.072,42.657 8.622,42.619 8.372 C 42.581 8.122,42.551 8.367,42.552 8.917 M42.545 14.833 C 42.545 15.246,42.578 15.415,42.618 15.208 C 42.657 15.002,42.657 14.665,42.618 14.458 C 42.578 14.252,42.545 14.421,42.545 14.833 M57.795 34.121 C 58.094 34.158,58.544 34.157,58.795 34.119 C 59.045 34.081,58.800 34.051,58.250 34.052 C 57.700 34.053,57.495 34.084,57.795 34.121 M31.406 37.208 L 30.917 37.750 31.458 37.260 C 31.963 36.804,32.077 36.667,31.948 36.667 C 31.919 36.667,31.675 36.910,31.406 37.208 M29.740 39.042 L 29.250 39.583 29.792 39.094 C 30.297 38.638,30.410 38.500,30.281 38.500 C 30.252 38.500,30.009 38.744,29.740 39.042 M88.845 40.917 C 88.845 41.008,88.952 41.271,89.083 41.500 C 89.214 41.729,89.322 41.842,89.322 41.750 C 89.322 41.658,89.214 41.396,89.083 41.167 C 88.952 40.938,88.845 40.825,88.845 40.917 M26.578 42.375 L 25.583 43.417 26.625 42.422 C 27.198 41.875,27.667 41.406,27.667 41.380 C 27.667 41.257,27.502 41.407,26.578 42.375 M45.240 42.208 L 44.750 42.750 45.292 42.260 C 45.797 41.804,45.910 41.667,45.781 41.667 C 45.752 41.667,45.509 41.910,45.240 42.208 M60.042 42.115 C 60.202 42.157,60.465 42.157,60.625 42.115 C 60.785 42.073,60.654 42.039,60.333 42.039 C 60.012 42.039,59.881 42.073,60.042 42.115 M90.514 44.417 C 90.514 44.508,90.658 44.846,90.833 45.167 C 91.009 45.487,91.153 45.675,91.153 45.583 C 91.153 45.492,91.009 45.154,90.833 44.833 C 90.658 44.512,90.514 44.325,90.514 44.417 M67.750 46.333 C 68.479 47.067,69.113 47.667,69.159 47.667 C 69.205 47.667,68.646 47.067,67.917 46.333 C 67.188 45.600,66.554 45.000,66.508 45.000 C 66.462 45.000,67.021 45.600,67.750 46.333 M23.242 45.875 L 22.583 46.583 23.292 45.925 C 23.950 45.312,24.077 45.167,23.950 45.167 C 23.923 45.167,23.605 45.485,23.242 45.875 M92.345 48.250 C 92.345 48.342,92.452 48.604,92.583 48.833 C 92.714 49.063,92.822 49.175,92.822 49.083 C 92.822 48.992,92.714 48.729,92.583 48.500 C 92.452 48.271,92.345 48.158,92.345 48.250 M22.833 48.385 C 22.833 48.414,23.077 48.658,23.375 48.927 L 23.917 49.417 23.427 48.875 C 22.971 48.370,22.833 48.257,22.833 48.385 M105.012 74.583 C 105.012 74.675,105.119 74.938,105.250 75.167 C 105.381 75.396,105.488 75.508,105.488 75.417 C 105.488 75.325,105.381 75.063,105.250 74.833 C 105.119 74.604,105.012 74.492,105.012 74.583 M100.417 89.833 C 100.775 90.200,101.105 90.500,101.151 90.500 C 101.197 90.500,100.941 90.200,100.583 89.833 C 100.225 89.467,99.895 89.167,99.849 89.167 C 99.803 89.167,100.059 89.467,100.417 89.833 M37.196 117.458 C 41.566 117.483,48.766 117.483,53.196 117.458 C 57.626 117.434,54.050 117.413,45.250 117.413 C 36.450 117.413,32.826 117.434,37.196 117.458 " stroke="none" fill="#7c6c04" fill-rule="evenodd"></path><path id="path4" d="M42.539 6.667 C 42.539 6.987,42.573 7.119,42.615 6.958 C 42.657 6.798,42.657 6.535,42.615 6.375 C 42.573 6.215,42.539 6.346,42.539 6.667 M44.906 42.375 L 44.417 42.917 44.958 42.427 C 45.463 41.971,45.577 41.833,45.448 41.833 C 45.419 41.833,45.175 42.077,44.906 42.375 M25.744 43.375 L 24.917 44.250 25.792 43.423 C 26.605 42.654,26.743 42.500,26.619 42.500 C 26.592 42.500,26.199 42.894,25.744 43.375 M23.073 46.208 L 22.583 46.750 23.125 46.260 C 23.630 45.804,23.743 45.667,23.615 45.667 C 23.586 45.667,23.342 45.910,23.073 46.208 M30.542 88.917 C 30.544 89.283,30.578 89.414,30.618 89.206 C 30.658 88.999,30.656 88.699,30.615 88.540 C 30.573 88.380,30.540 88.550,30.542 88.917 M100.493 89.708 C 101.184 90.444,101.333 90.577,101.333 90.451 C 101.333 90.425,100.977 90.068,100.542 89.660 L 99.750 88.917 100.493 89.708 M36.460 95.785 C 36.668 95.824,36.968 95.823,37.127 95.781 C 37.286 95.739,37.117 95.707,36.750 95.709 C 36.383 95.711,36.253 95.745,36.460 95.785 M109.375 117.455 C 109.719 117.491,110.281 117.491,110.625 117.455 C 110.969 117.419,110.688 117.389,110.000 117.389 C 109.313 117.389,109.031 117.419,109.375 117.455 " stroke="none" fill="#2b2404" fill-rule="evenodd"></path></g></svg>